HIERARCHY
ROOT Model
{
	OFFSET 0 0 0
	CHANNELS 6 Xposition Yposition Zposition Zrotation Xrotation Yrotation
	JOINT Model1
	{
		OFFSET 0 -2.25479 2.99384
		CHANNELS 3 Zrotation Xrotation Yrotation
		JOINT Model2
		{
			OFFSET 12.111 0 0
			CHANNELS 3 Zrotation Xrotation Yrotation
			JOINT Model3
			{
				OFFSET 11.5502 0 0
				CHANNELS 3 Zrotation Xrotation Yrotation
				JOINT Model4
				{
					OFFSET 11.781 0 0
					CHANNELS 3 Zrotation Xrotation Yrotation
					JOINT Model5
					{
						OFFSET 20.0601 0 0
						CHANNELS 3 Zrotation Xrotation Yrotation
						JOINT Model6
						{
							OFFSET 11.1962 0 0
							CHANNELS 3 Zrotation Xrotation Yrotation
							End Site
							{
								OFFSET 0 0 0
							}
						}
					}
					JOINT Model7
					{
						OFFSET 10.8223 0.417534 3.51114
						CHANNELS 3 Zrotation Xrotation Yrotation
						JOINT Model8
						{
							OFFSET -6.07943 0 0
							CHANNELS 3 Zrotation Xrotation Yrotation
							JOINT Model9
							{
								OFFSET -0.277416 10.39 -0.051239
								CHANNELS 3 Zrotation Xrotation Yrotation
								JOINT Model10
								{
									OFFSET -3.4391 -0.282043 1.86679
									CHANNELS 3 Zrotation Xrotation Yrotation
									JOINT Model11
									{
										OFFSET 13.0269 0 0
										CHANNELS 3 Zrotation Xrotation Yrotation
										JOINT Model12
										{
											OFFSET 10.8866 0 0
											CHANNELS 3 Zrotation Xrotation Yrotation
											JOINT Model13
											{
												OFFSET 16.7317 0 0
												CHANNELS 3 Zrotation Xrotation Yrotation
												JOINT Model14
												{
													OFFSET 11.8292 0 0
													CHANNELS 3 Zrotation Xrotation Yrotation
													JOINT Model15
													{
														OFFSET 4.82751 -3.73566 -0.836517
														CHANNELS 3 Zrotation Xrotation Yrotation
														JOINT Model16
														{
															OFFSET 3.75311 -0.0582886 -0.0186462
															CHANNELS 3 Zrotation Xrotation Yrotation
															JOINT Model17
															{
																OFFSET 2.88688 0.0192337 0.014801
																CHANNELS 3 Zrotation Xrotation Yrotation
																End Site
																{
																	OFFSET 0 0 0
																}
															}
														}
													}
													JOINT Model18
													{
														OFFSET 9.72197 -3.06458 0.23877
														CHANNELS 3 Zrotation Xrotation Yrotation
														JOINT Model19
														{
															OFFSET 4.61131 0 0
															CHANNELS 3 Zrotation Xrotation Yrotation
															JOINT Model20
															{
																OFFSET 2.8969 -7.62939e-006 0
																CHANNELS 3 Zrotation Xrotation Yrotation
																End Site
																{
																	OFFSET 0 0 0
																}
															}
														}
													}
													JOINT Model21
													{
														OFFSET 9.54431 -0.745064 0.588928
														CHANNELS 3 Zrotation Xrotation Yrotation
														JOINT Model22
														{
															OFFSET 5.33978 0 0
															CHANNELS 3 Zrotation Xrotation Yrotation
															JOINT Model23
															{
																OFFSET 3.03619 7.62939e-006 0
																CHANNELS 3 Zrotation Xrotation Yrotation
																End Site
																{
																	OFFSET 0 0 0
																}
															}
														}
													}
													JOINT Model24
													{
														OFFSET 9.47759 1.51286 0.485107
														CHANNELS 3 Zrotation Xrotation Yrotation
														JOINT Model25
														{
															OFFSET 4.96136 7.62939e-006 0
															CHANNELS 3 Zrotation Xrotation Yrotation
															JOINT Model26
															{
																OFFSET 2.51966 0 0
																CHANNELS 3 Zrotation Xrotation Yrotation
																End Site
																{
																	OFFSET 0 0 0
																}
															}
														}
													}
													JOINT Model27
													{
														OFFSET 9.34247 3.34117 -0.239288
														CHANNELS 3 Zrotation Xrotation Yrotation
														JOINT Model28
														{
															OFFSET 3.2826 2.28882e-005 0
															CHANNELS 3 Zrotation Xrotation Yrotation
															JOINT Model29
															{
																OFFSET 2.1292 0 0
																CHANNELS 3 Zrotation Xrotation Yrotation
																End Site
																{
																	OFFSET 0 0 0
																}
															}
														}
													}
												}
											}
										}
									}
								}
							}
						}
					}
					JOINT Model30
					{
						OFFSET 10.8223 0.4179 -3.51108
						CHANNELS 3 Zrotation Xrotation Yrotation
						JOINT Model31
						{
							OFFSET 6.07943 0 0
							CHANNELS 3 Zrotation Xrotation Yrotation
							JOINT Model32
							{
								OFFSET 0.277416 -10.39 0.051239
								CHANNELS 3 Zrotation Xrotation Yrotation
								JOINT Model33
								{
									OFFSET 3.4391 0.282043 -1.86679
									CHANNELS 3 Zrotation Xrotation Yrotation
									JOINT Model34
									{
										OFFSET -13.0269 0 0
										CHANNELS 3 Zrotation Xrotation Yrotation
										JOINT Model35
										{
											OFFSET -10.8866 0 0
											CHANNELS 3 Zrotation Xrotation Yrotation
											JOINT Model36
											{
												OFFSET -16.7317 0 0
												CHANNELS 3 Zrotation Xrotation Yrotation
												JOINT Model37
												{
													OFFSET -11.8292 0 0
													CHANNELS 3 Zrotation Xrotation Yrotation
													JOINT Model38
													{
														OFFSET -4.82751 3.73566 0.836517
														CHANNELS 3 Zrotation Xrotation Yrotation
														JOINT Model39
														{
															OFFSET -3.75311 0.0582886 0.0186462
															CHANNELS 3 Zrotation Xrotation Yrotation
															JOINT Model40
															{
																OFFSET -2.88688 -0.0192337 -0.014801
																CHANNELS 3 Zrotation Xrotation Yrotation
																End Site
																{
																	OFFSET 0 0 0
																}
															}
														}
													}
													JOINT Model41
													{
														OFFSET -9.72197 3.06459 -0.23877
														CHANNELS 3 Zrotation Xrotation Yrotation
														JOINT Model42
														{
															OFFSET -4.6113 0 0
															CHANNELS 3 Zrotation Xrotation Yrotation
															JOINT Model43
															{
																OFFSET -2.8969 0 0
																CHANNELS 3 Zrotation Xrotation Yrotation
																End Site
																{
																	OFFSET 0 0 0
																}
															}
														}
													}
													JOINT Model44
													{
														OFFSET -9.5443 0.745064 -0.588928
														CHANNELS 3 Zrotation Xrotation Yrotation
														JOINT Model45
														{
															OFFSET -5.33978 0 0
															CHANNELS 3 Zrotation Xrotation Yrotation
															JOINT Model46
															{
																OFFSET -3.03619 -1.52588e-005 0
																CHANNELS 3 Zrotation Xrotation Yrotation
																End Site
																{
																	OFFSET 0 0 0
																}
															}
														}
													}
													JOINT Model47
													{
														OFFSET -9.47759 -1.51286 -0.485107
														CHANNELS 3 Zrotation Xrotation Yrotation
														JOINT Model48
														{
															OFFSET -4.96136 -1.52588e-005 0
															CHANNELS 3 Zrotation Xrotation Yrotation
															JOINT Model49
															{
																OFFSET -2.51966 0 0
																CHANNELS 3 Zrotation Xrotation Yrotation
																End Site
																{
																	OFFSET 0 0 0
																}
															}
														}
													}
													JOINT Model50
													{
														OFFSET -9.34246 -3.34118 0.239288
														CHANNELS 3 Zrotation Xrotation Yrotation
														JOINT Model51
														{
															OFFSET -3.2826 -2.28882e-005 0
															CHANNELS 3 Zrotation Xrotation Yrotation
															JOINT Model52
															{
																OFFSET -2.1292 0 0
																CHANNELS 3 Zrotation Xrotation Yrotation
																End Site
																{
																	OFFSET 0 0 0
																}
															}
														}
													}
												}
											}
										}
									}
								}
							}
						}
					}
				}
			}
		}
	}
	JOINT Model53
	{
		OFFSET 4.38026 -2.14632 -1.11517
		CHANNELS 3 Zrotation Xrotation Yrotation
		JOINT Model54
		{
			OFFSET 0 0 4.94998
			CHANNELS 3 Zrotation Xrotation Yrotation
			JOINT Model55
			{
				OFFSET 18.5642 0 0
				CHANNELS 3 Zrotation Xrotation Yrotation
				JOINT Model56
				{
					OFFSET 21.2884 0 0
					CHANNELS 3 Zrotation Xrotation Yrotation
					JOINT Model57
					{
						OFFSET 30.261 0 0
						CHANNELS 3 Zrotation Xrotation Yrotation
						JOINT Model58
						{
							OFFSET 11.7259 0 0
							CHANNELS 3 Zrotation Xrotation Yrotation
							JOINT Model59
							{
								OFFSET 10.682 0 0
								CHANNELS 3 Zrotation Xrotation Yrotation
								End Site
								{
									OFFSET 0 0 0
								}
							}
						}
					}
				}
			}
		}
	}
	JOINT Model60
	{
		OFFSET -4.38026 -2.14632 -1.11517
		CHANNELS 3 Zrotation Xrotation Yrotation
		JOINT Model61
		{
			OFFSET 0 0 -4.94998
			CHANNELS 3 Zrotation Xrotation Yrotation
			JOINT Model62
			{
				OFFSET -18.5642 0 0
				CHANNELS 3 Zrotation Xrotation Yrotation
				JOINT Model63
				{
					OFFSET -21.2884 0 0
					CHANNELS 3 Zrotation Xrotation Yrotation
					JOINT Model64
					{
						OFFSET -30.261 0 0
						CHANNELS 3 Zrotation Xrotation Yrotation
						JOINT Model65
						{
							OFFSET -11.7259 0 0
							CHANNELS 3 Zrotation Xrotation Yrotation
							JOINT Model66
							{
								OFFSET -10.682 0 0
								CHANNELS 3 Zrotation Xrotation Yrotation
								End Site
								{
									OFFSET 0 0 0
								}
							}
						}
					}
				}
			}
		}
	}
}
MOTION
Frames: 4
Frame Time: 0.033333
-323.982 171.992 -491.185 98.8361 11.5627 88.479 -180 4.29621e-031 -90 2.19844 -2.0444 -0.161601 4.39531 -4.09393 -0.244786 4.3953 -4.09349 -0.244819 38.7416 10.8619 8.29082 -99.3377 10.6127 2.5986 120.092 75.5343 58.4939 -4.68973 3.46906 2.35379 -167.277 84.4999 48.8109 159.215 6.59765 23.3513 -1.80085e-006 28.3939 3.57884e-005 -74.8684 15.585 0.609905 1.58734e-006 22.777 2.24278e-006 -13.7192 4.22276 -34.077 -72.0648 39.0385 39.3397 33.3638 2.10362 14.835 0.588947 0.308273 6.35287 -99.6409 81.413 100.35 -0.0181409 2.77863e-005 -0.117315 -0.124139 0.00241113 -0.799296 -79.8382 79.5773 80.5374 -0.000225775 -0.000220915 2.21939e-005 -0.000956225 0.000122905 -2.73215e-005 -66.7416 80.4058 67.2171 -0.000437131 1.59531e-005 -2.73214e-005 -0.000136603 -0.000109281 -5.46424e-005 -6.42159 81.2158 8.01779 -0.000218565 1.69092e-005 0.000212139 0.000901585 -0.0001848 -0.000218567 -59.9282 75.5373 58.5147 -15.7264 -8.8363 -1.01715 -167.277 84.4999 48.8109 -171.344 11.5071 27.0812 -1.18931e-005 27.6143 3.98006e-005 -87.0303 14.8086 0.629029 -9.08826e-006 21.745 4.40918e-006 -21.7769 0.573007 -2.97821 -72.0648 39.0385 39.3397 33.3638 2.10361 14.835 0.588946 0.308273 6.35287 -99.6409 81.413 100.35 -0.0181409 3.01183e-005 -0.117315 -0.124139 0.00241119 -0.799296 -79.8382 79.5773 80.5374 -0.000260642 -0.000218525 2.35464e-005 -0.00095622 0.000123052 -2.73531e-005 -66.7416 80.4058 67.2171 -0.000437129 1.49219e-005 -2.7345e-005 -0.000136599 -0.000109228 -5.46743e-005 -6.42159 81.2158 8.01779 -0.000218564 1.96131e-005 0.000212273 0.000901585 -0.000191199 -0.000218598 0.000811311 0.56661 89.91 -12.0154 -3.57014 -9.28922 3.82482e-007 1.02833 -1.09838e-009 40.2228 -4.6686 -0.00536459 -2.18827e-007 -7.07854 -2.18626e-007 -71.7841 -7.36586 2.61255 -35.4947 4.32643e-007 1.37905e-007 -180 -0.566579 -90.09 -16.0703 -14.2255 -15.8408 -4.27407e-006 -11.6431 -4.93701e-007 41.3212 3.25734 -0.00524125 4.81945e-007 4.80831 2.90033e-007 -71.291 1.33453 -1.70478 -35.4947 2.98938e-007 -1.04449e-007 
-324.089 172.001 -491.185 98.9132 11.5029 88.2807 -180 4.29621e-031 -90 2.19685 -2.01906 -0.198422 4.39078 -4.04467 -0.319496 4.39078 -4.04424 -0.319529 38.5738 12.3634 5.16101 -98.6346 10.6075 3.8766 120.092 75.5343 58.4939 -4.79075 3.45094 2.36857 -167.277 84.4999 48.8109 159.771 6.14555 23.1639 -1.24652e-006 27.6075 3.55281e-005 -76.3206 12.1619 0.605035 1.79747e-006 17.6548 2.17009e-006 -17.5658 4.70657 -29.7901 -72.0648 39.0385 39.3397 33.3638 2.10362 14.835 0.588947 0.308273 6.35287 -99.6409 81.413 100.35 -0.0181409 2.77863e-005 -0.117315 -0.124139 0.00241113 -0.799296 -79.8382 79.5773 80.5374 -0.000225775 -0.000220915 2.21939e-005 -0.000956225 0.000122905 -2.73215e-005 -66.7416 80.4058 67.2171 -0.000437131 1.59531e-005 -2.73214e-005 -0.000136603 -0.000109281 -5.46424e-005 -6.42159 81.2158 8.01779 -0.000218565 1.69092e-005 0.000212139 0.000901585 -0.0001848 -0.000218567 -59.9282 75.5373 58.5147 -15.5875 -8.70836 -0.969524 -167.277 84.4999 48.8109 -171.378 11.7256 26.9714 -1.22252e-005 28.0363 3.99557e-005 -87.7065 14.7629 0.629259 -9.08336e-006 21.6858 4.40736e-006 -21.1774 0.680201 -3.63746 -72.0648 39.0385 39.3397 33.3638 2.10361 14.835 0.588946 0.308273 6.35287 -99.6409 81.413 100.35 -0.0181409 3.01183e-005 -0.117315 -0.124139 0.00241119 -0.799296 -79.8382 79.5773 80.5374 -0.000260642 -0.000218525 2.35464e-005 -0.00095622 0.000123052 -2.73531e-005 -66.7416 80.4058 67.2171 -0.000437129 1.49219e-005 -2.7345e-005 -0.000136599 -0.000109228 -5.46743e-005 -6.42159 81.2158 8.01779 -0.000218564 1.96131e-005 0.000212273 0.000901585 -0.000191199 -0.000218598 0.000811311 0.56661 89.91 -11.8987 -3.57584 -9.11779 3.8248e-007 0.919623 -1.09834e-009 40.0366 -4.63646 -0.00536334 -2.18641e-007 -7.02999 -2.18604e-007 -71.568 -7.294 2.60116 -35.4947 4.3335e-007 1.38718e-007 -180 -0.566579 -90.09 -16.1864 -14.1539 -16.0136 -4.27241e-006 -11.4542 -4.93369e-007 41.3943 3.13897 -0.00524031 4.82847e-007 4.63062 2.89959e-007 -71.3233 1.25318 -1.66445 -35.4947 2.95877e-007 -1.02015e-007 
-324.191 171.988 -491.17 99.0073 11.5335 88.1204 -180 4.29621e-031 -90 2.1973 -1.98163 -0.234841 4.39041 -3.97123 -0.393787 4.39041 -3.9708 -0.393821 38.6691 13.6516 2.24503 -98.259 10.4953 5.06424 120.092 75.5343 58.4939 -4.74823 3.57606 2.40368 -167.277 84.4999 48.8109 159.912 5.64922 22.6862 -7.41971e-007 26.8817 3.52971e-005 -78.6479 8.56937 0.603688 2.0052e-006 12.2879 2.11637e-006 -20.31 4.63878 -25.4835 -72.0648 39.0385 39.3397 33.3638 2.10362 14.835 0.588947 0.308273 6.35287 -99.6409 81.413 100.35 -0.0181409 2.77863e-005 -0.117315 -0.124139 0.00241113 -0.799296 -79.8382 79.5773 80.5374 -0.000225775 -0.000220915 2.21939e-005 -0.000956225 0.000122905 -2.73215e-005 -66.7416 80.4058 67.2171 -0.000437131 1.59531e-005 -2.73214e-005 -0.000136603 -0.000109281 -5.46424e-005 -6.42159 81.2158 8.01779 -0.000218565 1.69092e-005 0.000212139 0.000901585 -0.0001848 -0.000218567 -59.9282 75.5373 58.5147 -15.5456 -8.61389 -0.928529 -167.277 84.4999 48.8109 -171.329 11.9307 26.7619 -1.25701e-005 28.471 4.01189e-005 -88.5065 14.5687 0.629016 -9.06021e-006 21.4056 4.39886e-006 -20.7106 0.739776 -4.04693 -72.0648 39.0385 39.3397 33.3638 2.10361 14.835 0.588946 0.308273 6.35287 -99.6409 81.413 100.35 -0.0181409 3.01183e-005 -0.117315 -0.124139 0.00241119 -0.799296 -79.8382 79.5773 80.5374 -0.000260642 -0.000218525 2.35464e-005 -0.00095622 0.000123052 -2.73531e-005 -66.7416 80.4058 67.2171 -0.000437129 1.49219e-005 -2.7345e-005 -0.000136599 -0.000109228 -5.46743e-005 -6.42159 81.2158 8.01779 -0.000218564 1.96131e-005 0.000212273 0.000901585 -0.000191199 -0.000218598 0.000811311 0.56661 89.91 -11.8582 -3.59128 -9.01685 3.82478e-007 0.83317 -1.09832e-009 39.9681 -4.5678 -0.00536175 -2.18245e-007 -6.92689 -2.18555e-007 -71.4067 -7.21258 2.57854 -35.4947 4.34091e-007 1.3991e-007 -180 -0.566579 -90.09 -16.2717 -14.0796 -16.1351 -4.27093e-006 -11.2858 -4.93077e-007 41.5173 3.00887 -0.00523893 4.83839e-007 4.43525 2.89881e-007 -71.39 1.16656 -1.62226 -35.4947 2.91748e-007 -9.85088e-008 
-324.287 171.942 -491.129 99.1232 11.7355 88.0074 -180 4.29621e-031 -90 2.20423 -1.92692 -0.271623 4.40305 -3.86329 -0.469241 4.40305 -3.86286 -0.469275 39.0209 14.6369 -0.134673 -98.2249 10.4294 5.96459 120.092 75.5343 58.4939 -4.41774 3.92061 2.45424 -167.277 84.4999 48.8109 159.204 5.05741 21.7169 -3.01238e-007 26.24 3.51001e-005 -82.3195 4.8257 0.605663 2.21226e-006 6.71193 2.08215e-006 -21.6873 4.21357 -21.7425 -72.0648 39.0385 39.3397 33.3638 2.10362 14.835 0.588947 0.308273 6.35287 -99.6409 81.413 100.35 -0.0181409 2.77863e-005 -0.117315 -0.124139 0.00241113 -0.799296 -79.8382 79.5773 80.5374 -0.000225775 -0.000220915 2.21939e-005 -0.000956225 0.000122905 -2.73215e-005 -66.7416 80.4058 67.2171 -0.000437131 1.59531e-005 -2.73214e-005 -0.000136603 -0.000109281 -5.46424e-005 -6.42159 81.2158 8.01779 -0.000218565 1.69092e-005 0.000212139 0.000901585 -0.0001848 -0.000218567 -59.9282 75.5373 58.5147 -15.639 -8.61457 -0.919484 -167.277 84.4999 48.8109 -171.12 12.0958 26.3896 -1.29067e-005 28.892 4.02805e-005 -89.465 14.1926 0.628099 -9.01499e-006 20.8552 4.38256e-006 -20.5306 0.719346 -3.97047 -72.0648 39.0385 39.3397 33.3638 2.10361 14.835 0.588946 0.308273 6.35287 -99.6409 81.413 100.35 -0.0181409 3.01183e-005 -0.117315 -0.124139 0.00241119 -0.799296 -79.8382 79.5773 80.5374 -0.000260642 -0.000218525 2.35464e-005 -0.00095622 0.000123052 -2.73531e-005 -66.7416 80.4058 67.2171 -0.000437129 1.49219e-005 -2.7345e-005 -0.000136599 -0.000109228 -5.46743e-005 -6.42159 81.2158 8.01779 -0.000218564 1.96131e-005 0.000212273 0.000901585 -0.000191199 -0.000218598 0.000811311 0.56661 89.91 -11.9418 -3.58824 -8.99681 3.82478e-007 0.812186 -1.09831e-009 40.0757 -4.45434 -0.00535977 -2.17592e-007 -6.75689 -2.18478e-007 -71.3043 -7.12432 2.54569 -35.4947 4.34867e-007 1.41471e-007 -180 -0.566579 -90.09 -16.3231 -14.0341 -16.212 -4.27001e-006 -11.1811 -4.92898e-007 41.726 2.86848 -0.00523716 4.84909e-007 4.2243 2.898e-007 -71.5085 1.08064 -1.58166 -35.4947 2.86573e-007 -9.39532e-008 
